<svg xmlns="http://www.w3.org/2000/svg" xmlns:xlink="http://www.w3.org/1999/xlink" width="345" height="345" viewBox="0 0 345 345">
  <defs>
    <filter id="Path_12" x="0" y="0" width="345" height="345" filterUnits="userSpaceOnUse">
      <feOffset dy="3" input="SourceAlpha"/>
      <feGaussianBlur stdDeviation="3" result="blur"/>
      <feFlood flood-opacity="0.161"/>
      <feComposite operator="in" in2="blur"/>
      <feComposite in="SourceGraphic"/>
    </filter>
  </defs>
  <g id="Group_7" data-name="Group 7" transform="translate(2267 318)">
    <g transform="matrix(1, 0, 0, 1, -2267, -318)" filter="url(#Path_12)" style="mix-blend-mode: multiply;isolation: isolate">
      <path id="Path_12-2" data-name="Path 12" d="M86,0H241a86,86,0,0,1,86,86V241a86,86,0,0,1-86,86H86A86,86,0,0,1,0,241V86A86,86,0,0,1,86,0Z" transform="translate(9 6)" fill="#00ffba"/>
    </g>
    <path id="Subtraction_11" data-name="Subtraction 11" d="M112.5,225a113.332,113.332,0,0,1-22.673-2.286A111.883,111.883,0,0,1,49.6,205.787a112.828,112.828,0,0,1-40.759-49.5,111.936,111.936,0,0,1-6.555-21.117,113.6,113.6,0,0,1,0-45.346A111.883,111.883,0,0,1,19.213,49.6,112.828,112.828,0,0,1,68.71,8.841,111.935,111.935,0,0,1,89.827,2.286a113.6,113.6,0,0,1,45.346,0A111.883,111.883,0,0,1,175.4,19.213a112.828,112.828,0,0,1,40.759,49.5,111.934,111.934,0,0,1,6.555,21.117,113.6,113.6,0,0,1,0,45.346A111.883,111.883,0,0,1,205.787,175.4a112.828,112.828,0,0,1-49.5,40.759,111.934,111.934,0,0,1-21.117,6.555A113.332,113.332,0,0,1,112.5,225Zm0-203A90.5,90.5,0,1,0,203,112.5,90.6,90.6,0,0,0,112.5,22Z" transform="translate(-2207 -260)" fill="#fff"/>
    <path id="Subtraction_12" data-name="Subtraction 12" d="M53.5,107A53.514,53.514,0,0,1,32.675,4.2,53.514,53.514,0,0,1,74.325,102.8,53.166,53.166,0,0,1,53.5,107Zm0-86A32.5,32.5,0,1,0,86,53.5,32.537,32.537,0,0,0,53.5,21Z" transform="translate(-2148 -201)" fill="#fff"/>
    <path id="Path_10" data-name="Path 10" d="M-953.5,476c-38.173,3.918-60.369,8.57-73.5,12.845-19.489,6.345-17.378,11.7-17.378,11.7l-19.039-19.978a397.142,397.142,0,0,1,71.865-3.772C-951.768,478.322-953.5,476-953.5,476Z" transform="translate(-1073.001 -375.125) rotate(8)" fill="#fff" stroke="#fff" stroke-width="1"/>
    <path id="Path_6" data-name="Path 6" d="M-963.976,237.783" transform="translate(-1141 -511)" fill="none" stroke="#707070" stroke-width="1"/>
  </g>
</svg>
